<?xml version="1.0" standalone="no"?>
<!DOCTYPE svg PUBLIC "-//W3C//DTD SVG 20010904//EN"
 "http://www.w3.org/TR/2001/REC-SVG-20010904/DTD/svg10.dtd">
<svg version="1.0" xmlns="http://www.w3.org/2000/svg"
 width="180.000000pt" height="180.000000pt" viewBox="0 0 180.000000 180.000000"
 preserveAspectRatio="xMidYMid meet">

<g transform="translate(0.000000,180.000000) scale(0.100000,-0.100000)"
fill="#000000" stroke="none">
<path d="M204 1375 c-29 -63 -53 -183 -54 -265 0 -61 22 -196 41 -249 10 -28
9 -38 -3 -60 -20 -33 -38 -119 -38 -176 0 -35 6 -49 28 -69 45 -43 113 -96
122 -96 19 0 19 21 -1 54 -17 29 -20 45 -14 85 9 67 45 107 110 122 28 7 55
13 62 15 6 1 14 22 18 46 15 89 84 140 162 119 65 -18 99 -46 128 -106 33 -67
53 -79 123 -78 64 2 77 11 111 83 33 70 72 93 150 87 48 -3 59 -8 83 -38 15
-18 34 -54 41 -79 l13 -45 56 0 c64 0 95 -21 129 -87 25 -49 24 -80 -3 -128
-31 -54 -16 -70 40 -41 55 28 85 73 90 136 6 68 -15 188 -37 217 -17 22 -17
27 7 128 27 113 33 232 15 290 -6 19 -14 55 -17 80 -4 25 -15 60 -25 76 l-19
31 -85 -18 c-107 -23 -169 -47 -243 -95 l-57 -37 -51 19 c-43 16 -77 19 -211
18 -93 0 -178 -6 -203 -13 -38 -11 -45 -10 -72 9 -80 57 -257 119 -338 120
-30 0 -35 -4 -58 -55z m211 -25 c18 -7 23 -19 28 -71 4 -34 7 -79 7 -99 0 -44
34 -180 55 -223 15 -29 14 -31 -23 -63 l-37 -32 -42 83 c-36 70 -49 113 -78
259 -19 96 -35 177 -35 180 0 5 79 -17 125 -34z m-123 -151 c32 -158 43 -194
87 -285 28 -57 51 -112 51 -123 0 -14 -12 -22 -46 -30 -26 -7 -47 -11 -49 -9
-21 29 -65 98 -65 102 0 3 -13 33 -29 66 -35 72 -52 170 -45 260 5 68 39 200
52 200 4 0 24 -81 44 -181z m1238 99 c0 -65 -92 -207 -209 -323 -70 -69 -71
-69 -104 -57 -40 14 -116 16 -151 2 -38 -14 -32 -5 17 23 117 69 257 222 323
352 27 55 41 71 62 76 37 8 62 -21 62 -73z m-156 10 c-15 -29 -42 -73 -62 -97
-34 -42 -36 -43 -81 -37 -59 8 -252 72 -277 92 -18 14 -16 15 21 9 22 -3 71
-16 108 -28 44 -14 71 -18 75 -11 12 17 212 121 240 124 1 0 -10 -24 -24 -52z
m-847 -10 c21 -12 48 -30 60 -41 15 -13 30 -17 46 -13 24 6 24 5 30 -87 5 -79
23 -160 52 -229 6 -16 3 -16 -40 3 -30 13 -62 19 -88 17 l-42 -3 -29 85 c-22
64 -30 110 -34 188 -2 56 -2 102 1 102 3 0 23 -10 44 -22z m388 -49 c50 -34
261 -108 308 -109 15 0 27 -3 27 -7 0 -20 -76 -83 -100 -83 -76 1 -304 79
-386 134 -99 65 -99 77 1 89 82 10 104 7 150 -24z m641 -144 c-3 -33 -17 -107
-31 -163 -14 -57 -23 -112 -20 -122 10 -31 -83 -88 -99 -61 -4 5 -23 12 -44
16 -31 5 -41 13 -64 54 l-26 48 91 94 c53 55 111 127 137 171 43 72 45 75 53
49 4 -14 6 -53 3 -86z m-699 -9 c43 -18 121 -44 171 -57 51 -13 92 -26 92 -29
0 -3 -30 -23 -66 -44 l-65 -39 -67 17 c-91 22 -194 74 -209 107 -7 14 -15 51
-19 83 l-7 57 45 -30 c25 -17 81 -46 125 -65z m6 -172 c31 -10 57 -20 57 -24
0 -7 -106 -60 -119 -60 -7 0 -71 122 -71 136 0 2 17 -4 38 -15 20 -10 63 -27
95 -37z m153 -29 c-11 -8 -34 -41 -50 -73 l-31 -57 -52 -3 c-44 -3 -53 0 -63
18 -6 12 -10 22 -8 23 101 51 214 106 218 106 3 0 -4 -6 -14 -14z m-732 -128
l27 -37 -28 -30 c-27 -29 -83 -43 -83 -21 0 25 43 142 49 135 4 -5 20 -26 35
-47z m1263 -65 c8 -67 -15 -76 -52 -20 l-27 40 28 29 c33 35 42 27 51 -49z
m-1307 -107 c0 -40 -12 -45 -34 -14 -18 26 -11 49 15 49 15 0 19 -7 19 -35z
m1308 -37 c-13 -23 -13 -22 -16 11 -2 20 2 37 10 42 18 12 23 -24 6 -53z"/>
<path d="M541 836 c-12 -13 -26 -39 -32 -58 -5 -20 -25 -55 -44 -79 -89 -113
-80 -254 22 -338 40 -34 116 -61 145 -53 25 6 23 39 -3 52 -26 14 -49 68 -49
115 0 46 37 118 94 185 38 44 46 61 46 93 0 87 -122 144 -179 83z m79 -67 c0
-5 -15 -12 -32 -17 -40 -10 -48 6 -22 45 l17 27 18 -23 c11 -13 19 -27 19 -32z
m40 26 c7 -9 8 -15 2 -15 -5 0 -12 7 -16 15 -3 8 -4 15 -2 15 2 0 9 -7 16 -15z
m20 -58 c0 -2 -16 -21 -35 -43 -19 -21 -50 -67 -67 -100 -28 -54 -38 -64 -81
-82 -41 -18 -49 -18 -54 -6 -12 31 9 105 40 146 27 36 44 46 102 64 68 22 95
27 95 21z m-140 -274 c0 -16 3 -38 6 -50 5 -18 2 -23 -13 -23 -18 0 -81 56
-72 64 8 7 64 35 72 36 4 0 7 -12 7 -27z"/>
<path d="M1045 838 c-24 -19 -27 -26 -23 -69 4 -37 15 -61 46 -101 52 -68 82
-138 82 -194 0 -49 -20 -98 -45 -107 -8 -4 -15 -16 -15 -28 0 -20 3 -21 58
-14 76 9 125 38 167 99 34 51 34 51 27 133 -7 71 -12 87 -40 121 -17 22 -42
65 -56 95 -28 64 -62 87 -129 87 -30 0 -53 -7 -72 -22z m54 -31 c-2 -1 -13 -9
-24 -17 -19 -14 -19 -14 -6 3 7 9 18 17 24 17 6 0 8 -1 6 -3z m110 -59 c16
-35 38 -72 50 -82 l21 -19 -27 -19 c-16 -10 -40 -25 -55 -33 -26 -14 -27 -14
-56 38 -16 28 -39 61 -51 71 -11 11 -21 24 -21 30 0 11 87 76 103 76 4 0 21
-28 36 -62z m95 -173 c9 -45 4 -52 -42 -65 -54 -15 -69 -13 -75 11 -4 16 5 27
46 54 29 19 55 34 58 34 4 1 10 -15 13 -34z m0 -97 c-26 -43 -60 -78 -90 -93
-37 -17 -56 -13 -36 7 7 7 12 25 12 40 0 22 6 29 28 34 15 3 38 10 52 14 36
12 42 12 34 -2z"/>
<path d="M805 682 c-33 -7 -45 -22 -45 -56 0 -34 6 -44 57 -90 l31 -28 50 16
c61 21 85 46 84 88 -1 45 -35 72 -80 64 -18 -3 -43 -2 -55 3 -12 4 -31 5 -42
3z m39 -38 c24 -9 19 -21 -14 -32 -32 -12 -46 -2 -36 23 6 16 24 19 50 9z
m106 -39 c0 -32 -88 -66 -109 -42 -9 12 -6 16 22 21 18 3 42 13 53 21 24 19
34 19 34 0z"/>
</g>
</svg>
