<?xml version="1.0" standalone="no"?>
<!DOCTYPE svg PUBLIC "-//W3C//DTD SVG 20010904//EN"
 "http://www.w3.org/TR/2001/REC-SVG-20010904/DTD/svg10.dtd">
<svg version="1.0" xmlns="http://www.w3.org/2000/svg"
 width="700.000000pt" height="700.000000pt" viewBox="0 0 700.000000 700.000000"
 preserveAspectRatio="xMidYMid meet">
<metadata>
Created by potrace 1.11, written by Peter Selinger 2001-2013
</metadata>
<g transform="translate(0.000000,700.000000) scale(0.100000,-0.100000)"
fill="#000000" stroke="none">
<path d="M929 5549 c-35 -13 -67 -61 -122 -179 -170 -363 -263 -973 -202
-1332 2 -13 9 -61 15 -108 9 -72 19 -128 56 -328 6 -33 61 -239 78 -293 19
-63 13 -116 -24 -195 -54 -116 -93 -246 -115 -380 -3 -22 -8 -52 -11 -69 -14
-76 -21 -178 -18 -260 5 -128 30 -174 159 -290 158 -141 212 -186 329 -269 83
-60 105 -66 131 -39 26 26 14 80 -47 200 l-53 107 0 100 c0 117 8 171 34 246
51 144 139 241 273 302 36 16 163 54 211 64 73 13 154 38 168 50 14 13 41 88
54 152 36 174 82 267 180 364 152 149 371 167 615 51 152 -72 236 -162 345
-369 58 -112 107 -178 163 -221 66 -50 107 -58 292 -58 151 1 169 3 218 24 69
31 125 95 186 212 128 246 183 317 289 369 82 39 100 42 252 46 160 4 262 -13
313 -53 110 -84 213 -259 271 -461 16 -57 31 -105 33 -107 2 -1 82 -5 178 -8
119 -3 191 -10 226 -21 120 -38 224 -142 310 -311 99 -198 98 -290 -6 -499
-75 -150 -78 -216 -10 -216 70 0 237 83 315 157 152 143 206 300 200 578 -2
77 -6 154 -9 170 -3 17 -7 50 -10 75 -23 197 -83 391 -149 481 -21 29 -27 84
-16 144 4 22 9 54 12 70 3 17 23 111 46 210 22 99 42 194 45 210 8 48 16 89
20 110 2 11 7 47 11 80 4 33 8 74 10 90 20 152 25 375 12 500 -4 44 -23 143
-42 220 -18 77 -41 185 -51 240 -21 126 -58 240 -107 330 -59 111 -65 116
-112 105 -22 -5 -53 -11 -70 -14 -35 -7 -54 -11 -115 -25 -25 -5 -56 -12 -70
-14 -88 -17 -404 -103 -482 -131 -229 -84 -287 -116 -670 -358 l-46 -30 -89
32 c-135 49 -234 79 -278 85 -22 3 -71 10 -110 14 -68 9 -935 7 -1025 -2 -25
-3 -81 -8 -125 -11 -44 -4 -135 -18 -203 -32 -147 -30 -148 -30 -294 63 -276
175 -708 345 -1052 414 -119 23 -281 33 -317 18z m306 -184 c100 -24 353 -104
396 -126 56 -28 74 -86 95 -299 2 -25 6 -67 9 -95 3 -27 7 -97 10 -155 9 -182
14 -220 40 -345 8 -38 17 -79 19 -90 8 -39 36 -151 55 -220 11 -38 26 -93 34
-121 8 -28 36 -103 62 -168 62 -154 69 -140 -138 -319 -43 -37 -81 -67 -85
-67 -13 0 -257 506 -290 600 -45 129 -112 393 -157 620 -2 8 -22 110 -45 225
-45 224 -44 219 -55 280 -14 79 -17 91 -36 188 -19 99 -19 120 4 112 7 -2 44
-11 82 -20z m-261 -14 c11 -17 86 -333 141 -591 88 -417 104 -489 131 -590 13
-52 27 -104 29 -114 6 -27 55 -177 65 -201 31 -73 146 -328 185 -409 70 -147
133 -308 141 -354 4 -29 2 -47 -7 -58 -21 -26 -85 -54 -172 -75 -76 -19 -94
-23 -153 -34 -11 -1 -25 0 -30 3 -16 12 -201 295 -233 357 -64 126 -191 424
-220 520 -44 145 -74 295 -86 435 -6 67 -7 347 -1 375 2 12 7 48 11 80 4 33 9
69 11 80 2 11 6 31 9 45 2 14 16 77 30 140 63 281 122 435 149 391z m4857 -36
c100 -52 144 -217 101 -377 -61 -220 -274 -561 -555 -887 -135 -157 -423 -442
-481 -476 -53 -31 -74 -31 -201 4 -88 24 -173 34 -285 34 -77 0 -197 -10 -210
-18 -4 -3 -32 -11 -61 -19 -30 -8 -63 -17 -74 -21 l-20 -8 20 21 c11 12 77 57
147 101 326 203 665 522 949 891 127 165 223 317 346 551 42 79 92 150 126
179 55 47 135 57 198 25z m-445 -139 c-113 -239 -310 -528 -408 -597 -63 -46
-238 -18 -608 96 -195 60 -470 157 -565 199 -69 31 -135 74 -135 89 0 11 87 4
160 -12 25 -5 57 -12 71 -14 25 -5 254 -70 376 -107 154 -47 192 -45 283 17
201 137 857 463 868 433 2 -5 -17 -52 -42 -104z m-3413 -88 c89 -45 228 -134
308 -198 70 -55 141 -70 216 -45 34 11 60 -50 68 -160 2 -27 7 -88 10 -135 3
-47 8 -96 10 -110 2 -14 7 -59 10 -100 4 -41 11 -97 17 -125 5 -27 12 -66 15
-85 15 -104 80 -331 137 -483 15 -38 24 -72 21 -77 -7 -11 -6 -11 -150 46
-152 59 -224 72 -374 67 -68 -2 -128 -6 -132 -9 -5 -3 -9 -3 -9 -1 0 2 -26 80
-58 173 -66 191 -113 346 -135 449 -17 76 -18 84 -42 295 -3 25 -8 145 -12
267 -5 202 -2 273 13 273 3 0 42 -19 87 -42z m1407 -142 c36 -12 109 -47 161
-78 181 -108 498 -237 854 -347 55 -17 114 -35 130 -40 52 -17 232 -51 267
-51 19 0 42 -6 52 -13 17 -13 17 -15 1 -46 -33 -64 -189 -202 -291 -257 -49
-27 -124 -35 -194 -21 -22 5 -147 32 -191 42 -233 52 -682 211 -939 332 -240
113 -498 287 -541 366 -33 60 86 101 356 123 44 3 82 8 85 11 14 13 191 -2
250 -21z m2659 -319 c25 -88 18 -350 -14 -507 -2 -14 -7 -40 -10 -57 -11 -69
-16 -94 -34 -173 -5 -25 -12 -56 -15 -70 -2 -14 -21 -95 -41 -180 -45 -192
-76 -382 -74 -448 2 -35 -4 -59 -19 -83 -51 -82 -199 -173 -295 -182 -22 -2
-44 5 -73 26 -27 18 -80 38 -152 56 -61 16 -123 38 -140 49 -16 12 -50 52 -74
89 -55 82 -150 254 -146 264 2 4 89 97 193 206 418 435 552 599 730 893 31 52
73 114 92 138 41 50 54 46 72 -21z m-3314 -32 c144 -104 465 -276 661 -354
152 -60 434 -151 669 -216 116 -32 230 -67 255 -78 l45 -19 -32 -26 c-37 -32
-427 -271 -463 -285 -19 -7 -64 1 -190 33 -161 41 -325 91 -365 110 -11 5 -43
18 -72 29 -213 82 -421 219 -461 304 -22 48 -44 134 -57 227 -3 19 -8 44 -10
56 -3 11 -7 43 -10 70 -7 62 -15 121 -21 157 -5 31 -2 31 51 -8z m289 -869
c68 -30 202 -82 297 -116 198 -69 259 -95 259 -110 0 -16 -80 -63 -234 -139
-173 -84 -211 -97 -232 -81 -33 28 -242 427 -258 492 -8 33 -17 35 168 -46z
m941 -244 c-66 -63 -134 -164 -234 -350 -62 -115 -88 -153 -106 -158 -12 -3
-100 -6 -195 -7 l-172 -2 -34 39 c-31 35 -64 110 -53 120 2 2 153 76 334 165
182 89 366 179 410 201 44 21 85 39 90 39 6 0 -12 -21 -40 -47z m-2968 -344
c12 -13 67 -86 122 -162 l102 -140 -88 -85 c-104 -102 -194 -151 -278 -151
-52 0 -69 19 -62 73 13 94 155 487 176 487 4 0 17 -10 28 -22z m4976 -162 c7
-12 27 -76 33 -113 2 -13 6 -35 9 -50 3 -16 8 -73 12 -128 13 -230 -63 -234
-218 -11 -21 30 -49 72 -63 94 l-25 41 77 80 c100 104 146 127 175 87z m-5059
-539 c45 -33 32 -257 -14 -257 -17 0 -71 54 -95 94 -57 97 -28 173 66 175 14
1 33 -5 43 -12z m5147 -78 c17 -33 4 -114 -32 -185 -17 -35 -35 -64 -39 -64
-18 0 -29 164 -15 212 17 56 65 76 86 37z"/>
<path d="M2257 3339 c-121 -28 -204 -123 -279 -317 -40 -105 -80 -175 -183
-322 -121 -173 -171 -281 -204 -444 -26 -127 -25 -231 2 -377 25 -132 126
-307 243 -421 184 -180 531 -311 651 -247 13 7 27 28 33 47 13 50 -8 93 -69
138 -100 75 -170 210 -186 364 -4 30 -8 60 -9 65 -2 6 0 38 5 72 24 177 143
401 342 646 170 210 192 253 192 382 0 80 -4 98 -32 156 -87 185 -317 303
-506 258z m75 -217 c31 -42 62 -90 69 -105 12 -26 11 -30 -10 -46 -26 -20
-109 -48 -160 -55 -100 -14 -111 54 -28 185 12 19 31 50 42 67 10 18 22 32 25
32 3 -1 30 -35 62 -78z m216 -12 c30 -35 43 -60 37 -70 -16 -25 -67 28 -81 85
-7 28 -6 29 12 15 10 -8 25 -22 32 -30z m81 -267 c-17 -20 -158 -191 -174
-210 -51 -62 -112 -158 -204 -318 -51 -88 -103 -174 -116 -191 -58 -76 -325
-204 -382 -183 -72 27 -46 272 50 464 72 145 159 243 264 297 90 47 439 160
528 170 39 5 52 -7 34 -29z m-545 -951 c5 -9 13 -65 21 -151 2 -30 10 -88 17
-129 13 -81 9 -92 -42 -92 -23 0 -99 34 -110 49 -3 4 -16 15 -30 24 -39 27
-125 114 -140 143 -17 31 -26 24 134 106 109 56 140 66 150 50z"/>
<path d="M4269 3339 c-119 -16 -235 -84 -279 -161 -21 -37 -22 -49 -17 -137
11 -170 47 -260 171 -431 136 -185 228 -350 276 -490 51 -151 62 -307 32 -440
-29 -125 -73 -201 -144 -246 -44 -28 -68 -74 -68 -128 0 -50 24 -60 124 -52
364 27 573 139 755 406 64 93 94 150 105 194 12 50 8 179 -10 346 -3 30 -7 67
-9 82 -6 67 -30 167 -48 208 -11 25 -46 81 -78 125 -85 118 -147 223 -227 380
-39 77 -88 161 -109 186 -77 93 -175 144 -298 155 -38 3 -81 7 -95 8 -14 1
-50 -1 -81 -5z m1 -198 c0 -7 -68 -57 -129 -95 -19 -12 20 43 51 70 33 30 78
45 78 25z m319 -22 c13 -17 61 -106 107 -199 104 -207 165 -302 232 -359 l52
-43 -43 -31 c-64 -47 -291 -183 -325 -195 -45 -16 -71 3 -125 93 -86 144 -185
289 -232 340 -77 83 -98 120 -85 144 21 40 278 234 353 266 42 19 40 19 66
-16z m473 -851 c11 -45 20 -108 20 -138 -1 -48 -5 -58 -30 -81 -26 -23 -121
-62 -179 -73 -11 -3 -38 -9 -59 -15 -22 -6 -63 -11 -92 -11 -43 0 -58 5 -77
25 -14 13 -25 30 -26 37 0 7 -2 22 -4 32 -10 55 44 104 275 252 64 41 135 73
144 64 4 -4 17 -46 28 -92z m18 -381 c0 -49 -203 -287 -300 -354 -82 -56 -230
-95 -230 -61 0 6 10 25 23 42 30 41 45 80 52 141 13 112 13 111 58 133 41 21
345 110 380 111 9 1 17 -5 17 -12z"/>
<path d="M3111 2644 c-112 -23 -155 -87 -153 -226 1 -103 25 -146 149 -266 58
-56 126 -119 150 -139 l44 -36 92 28 c323 102 429 196 423 376 -4 110 -55 191
-144 231 -33 15 -62 19 -120 17 -158 -4 -209 -3 -252 9 -71 19 -120 20 -189 6z
m144 -132 c47 -14 85 -38 85 -56 0 -21 -30 -42 -102 -70 -58 -23 -85 -26 -140
-17 -9 1 -22 43 -20 61 14 86 69 111 177 82z m422 -110 c16 -10 20 -62 6 -87
-44 -80 -194 -152 -317 -153 -53 0 -63 3 -90 30 l-30 31 21 16 c11 10 47 23
79 30 85 18 161 49 224 91 74 49 87 55 107 42z"/>
</g>
</svg>
